<?xml version="1.0" encoding="utf-8"?>
<!-- Generator: Adobe Adobe Illustrator 24.2.0, SVG Export Plug-In . SVG Version: 6.00 Build 0)  -->
<svg version="1.1" id="Layer_1" xmlns="http://www.w3.org/2000/svg" xmlns:xlink="http://www.w3.org/1999/xlink" x="0px" y="0px"
	 width="100px" height="100px" viewBox="0 0 100 100" style="enable-background:new 0 0 100 100;" xml:space="preserve">
<style type="text/css">
	.st0{fill:#FFFFFF;}
</style>
<circle cx="50" cy="50" r="50"/>
<g>
	<g>
		<path class="st0" d="M61.74,23.41c-7.28,0-12.48,6.59-17.68,11.44c0.69,0,1.73-0.35,2.77-0.35c1.73,0,3.47,0.35,5.2,1.04
			c2.77-2.77,5.55-5.89,9.71-5.89c2.08,0,4.51,1.04,6.24,2.43c3.47,3.47,3.47,9.01,0,12.48l-9.01,9.01
			C57.58,54.96,54.81,56,52.73,56c-4.85,0-7.28-3.12-9.01-6.93l-4.51,4.51c2.77,5.2,6.93,9.01,13.17,9.01
			c4.16,0,7.97-1.73,10.4-4.51l9.01-9.01c3.12-3.12,5.2-6.93,5.2-11.44C76.31,30,69.37,23.41,61.74,23.41z"/>
		<path class="st0" d="M46.84,65.36l-3.12,3.12c-1.39,1.39-4.16,2.43-6.24,2.43s-4.51-1.04-6.24-2.43c-3.47-3.47-3.47-9.36,0-12.48
			l9.01-9.01c1.39-1.39,4.16-2.43,6.24-2.43c4.85,0,7.28,3.47,9.01,6.93l4.51-4.51c-2.77-5.2-6.93-9.01-13.17-9.01
			c-4.16,0-7.97,1.73-10.4,4.51l-9.01,9.01c-5.89,5.89-5.89,15.26,0,20.8c5.55,5.55,15.26,5.89,20.46,0l6.59-6.59
			c-1.04,0.35-2.08,0.35-3.12,0.35C49.61,66.06,48.22,66.06,46.84,65.36z"/>
	</g>
</g>
</svg>
