<?xml version="1.0" encoding="utf-8"?>
<!-- Generator: Adobe Adobe Illustrator 24.2.0, SVG Export Plug-In . SVG Version: 6.00 Build 0)  -->
<svg version="1.1" id="Layer_1" xmlns="http://www.w3.org/2000/svg" xmlns:xlink="http://www.w3.org/1999/xlink" x="0px" y="0px"
	 width="100px" height="100px" viewBox="0 0 100 100" style="enable-background:new 0 0 100 100;" xml:space="preserve">
<style type="text/css">
	.st0{fill:#FFFFFF;}
</style>
<circle cx="50" cy="50" r="50"/>
<path class="st0" d="M65,62.39c-2.28,0-4.33,0.89-5.9,2.31L37.73,52.23c0.17-0.68,0.27-1.38,0.27-2.1c0-0.72-0.1-1.43-0.27-2.1
	l21.15-12.34c1.61,1.5,3.75,2.43,6.12,2.43c4.97,0,9-4.03,9-9s-4.03-9-9-9s-9,4.04-9,9c0,0.72,0.1,1.43,0.27,2.1L35.12,43.56
	c-1.6-1.5-3.75-2.43-6.12-2.43c-4.96,0-9,4.03-9,9s4.04,9,9,9c2.37,0,4.51-0.93,6.12-2.43l21.38,12.47
	c-0.15,0.63-0.24,1.29-0.24,1.97c0,4.83,3.91,8.75,8.74,8.75s8.75-3.92,8.75-8.75S69.83,62.39,65,62.39z"/>
</svg>
